<svg width="101" height="77" fill="none" xmlns="http://www.w3.org/2000/svg"><path d="M97 18.1s-.9-7-3.8-10.1c-3.6-4-7.7-4.1-9.5-4.3-13.3-1-33.3-1-33.3-1h-.1s-20 0-33.3 1c-1.9.2-5.9.3-9.5 4.3-2.8 3.1-3.8 10.1-3.8 10.1s-.9 8.2-.9 16.4v7.7c0 8.2.9 16.4.9 16.4s.9 7 3.8 10.1c3.6 4 8.4 3.9 10.5 4.3 7.6.8 32.4 1 32.4 1s20 0 33.3-1c1.9-.2 5.9-.3 9.5-4.3C96 65.6 97 58.6 97 58.6s.9-8.2.9-16.4v-7.7c0-8.2-.9-16.4-.9-16.4z" fill="#63D1BB"/><path d="M50.3 76.8c-1 0-25-.3-32.6-1h-.2c-.3-.1-.7-.1-1.1-.2-2.5-.3-7.2-.9-10.8-5C2.2 67 1.2 59.8 1.1 59c0-.3-1-8.5-1-16.7v-7.7c0-8.3.9-16.4.9-16.7v-.1c.1-.8 1.2-7.9 4.5-11.6 4-4.4 8.5-4.9 10.7-5.1.2 0 .4 0 .5-.1h.1c13.3-1 33.3-1 33.5-1h.1c.2 0 20.2 0 33.5 1h.1c.2 0 .3 0 .5.1 2.2.2 6.7.7 10.7 5.1 3.4 3.6 4.4 10.8 4.5 11.6 0 .3 1 8.5 1 16.8v7.7c0 8.3-.9 16.4-1 16.7v.1c-.1.8-1.2 8-4.5 11.6-4 4.4-8.5 4.9-10.7 5.1-.2 0-.4 0-.5.1h-.1c-13.3.9-33.4.9-33.6.9zm-31.9-6.4c7.5.7 31.2 1 32 1 .7 0 20.1 0 33-1 .2 0 .4 0 .6-.1 1.8-.2 4.6-.5 7.2-3.3 1.8-2 2.9-6.9 3.1-8.6.1-.5.9-8.4.9-16.1v-7.7c0-7.8-.9-15.6-1-16.1-.3-2.4-1.4-6.8-3.1-8.5-2.6-2.9-5.4-3.1-7.2-3.3-.2 0-.4 0-.6-.1-13.1-1-32.8-1-33-1h-.1c-.2 0-20 0-33 1-.2 0-.4 0-.6.1-1.8.2-4.6.5-7.2 3.3-1.8 2-2.9 6.9-3.1 8.6-.1.6-.9 8.4-.9 16.1v7.7c0 7.7.9 15.6.9 16.1.3 2.4 1.4 6.8 3.1 8.5 2.3 2.6 5.3 3 7.5 3.3.6-.1 1 0 1.5.1z" fill="#fff"/><path d="M38.4 20.5v35.7l29.8-17.8-29.8-17.9z" fill="#fff"/></svg>8C98.6001 9.79998 99.6001 17 99.7001 17.8C99.7001 18.1 100.7 26.3 100.7 34.6V42.3C100.7 50.6 99.8001 58.7 99.7001 59V59.1C99.6001 59.9 98.5001 67.1 95.2001 70.7C91.2001 75.1 86.7001 75.6 84.5001 75.8C84.3001 75.8 84.1001 75.8 84.0001 75.9H83.9001C70.6001 76.8 50.5001 76.8 50.3001 76.8ZM18.4001 70.4C25.9001 71.1 49.6001 71.4 50.4001 71.4C51.1001 71.4 70.5001 71.4 83.4001 70.4C83.6001 70.4 83.8001 70.4 84.0001 70.3C85.8001 70.1 88.6001 69.8 91.2001 67C93.0001 65 94.1001 60.1 94.3001 58.4C94.4001 57.9 95.2001 50 95.2001 42.3V34.6C95.2001 26.8 94.3001 19 94.2001 18.5C93.9001 16.1 92.8001 11.7 91.1001 10C88.5001 7.1 85.7001 6.89998 83.9001 6.69998C83.7001 6.69998 83.5001 6.70001 83.3001 6.60001C70.2001 5.60001 50.5001 5.60001 50.3001 5.60001H50.2001C50.0001 5.60001 30.2001 5.60001 17.2001 6.60001C17.0001 6.60001 16.8001 6.59998 16.6001 6.69998C14.8001 6.89998 12.0001 7.2 9.40012 10C7.60012 12 6.50011 16.9 6.30011 18.6C6.20011 19.2 5.4001 27 5.4001 34.7V42.4C5.4001 50.1 6.30011 58 6.30011 58.5C6.60011 60.9 7.70012 65.3 9.40012 67C11.7001 69.6 14.7001 70 16.9001 70.3C17.5001 70.2 17.9001 70.3 18.4001 70.4Z" fill="white"/>
<path d="M38.4004 20.5V56.2L68.2004 38.4L38.4004 20.5Z" fill="white"/>
</svg>
